Coordinates
version=1
nRows=54
nColumns=12
inDegrees=yes

Units are S.I. units (second, meters, Newtons, ...)
Angles are in degrees

endheader
time	SC_y	SC_z	SC_x	AC_y	AC_z	AC_x	GH_y	GH_z	GH_yy	EL_x	PS_y
       0.0              -22.96          9.533          72.36           35.5         -4.123          3.768         -123.5          51.45          80.61           52.0           14.3
   0.02712              -22.96          9.537          72.35           35.5         -4.125           3.77         -123.5          51.45           80.6           52.0           14.3
   0.05424              -22.97          9.541          72.34           35.5         -4.127          3.772         -123.5          51.45          80.58           52.0           14.3
   0.08136              -22.97          9.545          72.33          35.51         -4.129          3.774         -123.5          51.45          80.57          51.99           14.3
    0.1085              -22.97          9.549          72.32          35.51         -4.131          3.775         -123.5          51.45          80.55          51.99           14.3
    0.1356              -22.98          9.554          72.31          35.51         -4.134          3.778         -123.5          51.45          80.54          51.99           14.3
    0.1627              -22.98          9.558           72.3          35.51         -4.136           3.78         -123.5          51.45          80.52          51.98           14.3
    0.1898              -22.98          9.564          72.29          35.51         -4.139          3.782         -123.5          51.45           80.5          51.98           14.3
     0.217              -22.99          9.569          72.28          35.52         -4.142          3.785         -123.5          51.45          80.48          51.97           14.3
    0.2441              -22.99          9.575          72.27          35.52         -4.145          3.787         -123.5          51.45          80.46          51.97           14.3
    0.2712              -22.99          9.582          72.25          35.52         -4.148           3.79         -123.5          51.45          80.44          51.96           14.3
    0.2983               -23.0          9.589          72.24          35.52         -4.152          3.793         -123.5          51.45          80.41          51.96           14.3
    0.3254               -23.0          9.596          72.22          35.53         -4.156          3.797         -123.5          51.44          80.39          51.95          14.29
    0.3526              -23.01          9.604           72.2          35.53          -4.16            3.8         -123.5          51.44          80.36          51.94          14.29
    0.3797              -23.02          9.613          72.18          35.53         -4.165          3.804         -123.5          51.44          80.33          51.94          14.29
    0.4068              -23.02          9.623          72.16          35.54          -4.17          3.808         -123.5          51.44           80.3          51.93          14.29
    0.4339              -23.03          9.633          72.14          35.54         -4.175          3.813         -123.5          51.44          80.26          51.92          14.29
     0.461              -23.04          9.644          72.12          35.55         -4.181          3.818         -123.5          51.44          80.22          51.91          14.29
    0.4881              -23.05          9.656          72.09          35.55         -4.188          3.823         -123.5          51.44          80.18           51.9          14.29
    0.5153              -23.05           9.67          72.06          35.56         -4.195          3.829         -123.5          51.44          80.13          51.89          14.29
    0.5424              -23.06          9.685          72.03          35.56         -4.203          3.836         -123.5          51.44          80.08          51.87          14.29
    0.5695              -23.08          9.701          71.99          35.57         -4.211          3.843         -123.5          51.43          80.02          51.86          14.29
    0.5966              -23.09          9.719          71.95          35.58         -4.221          3.851         -123.5          51.43          79.96          51.85          14.28
    0.6237               -23.1          9.739          71.91          35.59         -4.231           3.86         -123.5          51.43          79.89          51.83          14.28
    0.6509              -23.12          9.761          71.86           35.6         -4.243           3.87         -123.5          51.43          79.82          51.81          14.28
     0.678              -23.13          9.786          71.81          35.61         -4.256          3.881         -123.5          51.42          79.73          51.79          14.28
    0.7051              -23.15          9.813          71.75          35.62         -4.271          3.893         -123.6          51.42          79.63          51.76          14.28
    0.7322              -23.17          9.844          71.68          35.63         -4.287          3.907         -123.6          51.42          79.53          51.74          14.27
    0.7593               -23.2           9.88           71.6          35.64         -4.305          3.923         -123.6          51.42           79.4          51.71          14.27
    0.7865              -23.22           9.92          71.52          35.66         -4.326          3.941         -123.6          51.41          79.26          51.67          14.27
    0.8136              -23.25          9.965          71.42          35.68         -4.351          3.961         -123.6          51.41          79.11          51.63          14.26
    0.8407              -23.29          10.02           71.3           35.7         -4.378          3.984         -123.6           51.4          78.92          51.59          14.26
    0.8678              -23.33          10.08          71.17          35.73          -4.41          4.011         -123.6          51.39          78.71          51.54          14.25
    0.8949              -23.38          10.15          71.02          35.76         -4.447          4.043         -123.6          51.39          78.47          51.48          14.25
    0.9221              -23.43          10.23          70.84          35.79          -4.49          4.079         -123.6          51.38          78.19          51.41          14.24
    0.9492               -23.5          10.33          70.63          35.83         -4.541          4.122         -123.7          51.37          77.85          51.33          14.23
    0.9763              -23.58          10.44          70.38          35.88         -4.602          4.174         -123.7          51.36          77.45          51.23          14.22
     1.003              -23.67          10.58          70.08          35.93         -4.674          4.235         -123.7          51.34          76.97          51.11          14.21
     1.031              -23.78          10.75          69.71           36.0         -4.762          4.309         -123.7          51.33          76.39          50.97          14.19
     1.058              -23.92          10.95          69.27          36.09          -4.87            4.4         -123.8           51.3          75.68          50.79          14.18
     1.085              -24.09           11.2          68.72          36.19         -5.002          4.512         -123.8          51.28          74.81          50.58          14.15
     1.112               -24.3          11.51          68.04          36.32         -5.167          4.652         -123.9          51.25          73.72          50.31          14.13
     1.139              -24.57          11.91          67.17          36.48         -5.376          4.828         -124.0          51.21          72.35          49.97          14.09
     1.166              -24.91          12.41          66.08          36.69          -5.64          5.052         -124.1          51.15           70.6          49.54          14.05
     1.193              -25.34          13.05          64.68          36.95         -5.979          5.339         -124.2          51.09          68.37          48.99          13.99
      1.22               -25.9          13.88          62.88          37.29         -6.414          5.707         -124.3           51.0           65.5          48.29          13.92
     1.247              -26.61          14.93          60.58          37.73         -6.969          6.176         -124.5          50.89          61.84          47.39          13.83
     1.275              -27.51          16.26          57.69          38.28         -7.667          6.767         -124.8          50.76          57.24          46.26          13.71
     1.302               -28.6          17.87          54.17          38.94         -8.518          7.487         -125.1          50.59          51.63          44.88          13.57
     1.329              -29.87          19.74          50.09          39.71         -9.504          8.321         -125.5           50.4          45.13          43.28          13.41
     1.356              -31.23          21.77          45.67          40.55         -10.57          9.225         -125.8          50.19          38.09          41.55          13.23
     1.383               -32.6          23.79          41.25          41.39         -11.64          10.13         -126.2          49.98          31.05          39.82          13.05
      1.41              -33.87          25.66          37.17          42.16         -12.63          10.96         -126.6          49.79          24.54          38.22          12.89
     1.437              -34.96          27.28          33.65          42.82         -13.48          11.68         -126.9          49.62          18.93          36.84          12.75
